<?xml version="1.0" encoding="utf-8"?>
<!-- Generator: Adobe Illustrator 20.1.0, SVG Export Plug-In . SVG Version: 6.00 Build 0)  -->
<svg version="1.1" id="Layer_1" xmlns="http://www.w3.org/2000/svg" xmlns:xlink="http://www.w3.org/1999/xlink" x="0px" y="0px"
	 viewBox="0 0 864 612" style="enable-background:new 0 0 864 612;" xml:space="preserve">
<style type="text/css">
	.st0{fill:url(#SVGID_1_);}
	.st1{fill:url(#SVGID_2_);}
	.st2{fill:url(#SVGID_3_);}
	.st3{fill:none;stroke:url(#SVGID_4_);stroke-miterlimit:10;}
	.st4{fill:none;stroke:url(#SVGID_5_);stroke-miterlimit:10;}
	.st5{fill:url(#SVGID_6_);}
	.st6{fill:url(#SVGID_7_);}
	.st7{fill:url(#SVGID_8_);}
</style>
<g>
	<g>
		
			<linearGradient id="SVGID_1_" gradientUnits="userSpaceOnUse" x1="-78.2722" y1="110.2419" x2="227.4556" y2="110.2419" gradientTransform="matrix(1.0405 0.3853 -0.3886 1.0494 327.9857 -46.7031)">
			<stop  offset="0" style="stop-color:#FFFFFF"/>
			<stop  offset="1" style="stop-color:#000000"/>
		</linearGradient>
		<path class="st0" d="M550.6,79c-55.6-19.3-133.5-23.4-191-19c-59.1,4.5-117.2,19.7-164.6,65.3l-8.5-39.9
			C186.5,85.4,342.4-15.8,550.6,79"/>
	</g>
	<g>
		
			<linearGradient id="SVGID_2_" gradientUnits="userSpaceOnUse" x1="142.3467" y1="245.5716" x2="468.0888" y2="245.5716" gradientTransform="matrix(0.8097 0.1847 -0.1805 0.7912 139.4028 -98.0724)">
			<stop  offset="0" style="stop-color:#FFFFFF"/>
			<stop  offset="1" style="stop-color:#000000"/>
		</linearGradient>
		<path class="st1" d="M491.8,104.9c-48.9-11.3-104.1-9.8-153.5,5.8s-92.3,50.7-128.4,95.7l-8.7-43.7
			C201.1,162.8,322.8,44.4,491.8,104.9"/>
	</g>
	<g>
		
			<linearGradient id="SVGID_3_" gradientUnits="userSpaceOnUse" x1="259.7554" y1="256.2691" x2="594.9263" y2="256.2691" gradientTransform="matrix(0.6475 -6.261882e-02 6.426349e-02 0.6645 32.1368 76.216)">
			<stop  offset="0" style="stop-color:#FFFFFF"/>
			<stop  offset="1" style="stop-color:#000000"/>
		</linearGradient>
		<path class="st2" d="M427.4,142.8c-33.5,3.9-93.6,27.7-128.3,60.9c-33.7,32.3-56.4,60.9-72.6,94.9l-8.2-52.2
			C218.4,246.3,316.4,135.4,427.4,142.8"/>
	</g>
</g>
<linearGradient id="SVGID_4_" gradientUnits="userSpaceOnUse" x1="266.534" y1="399.1349" x2="266.534" y2="399.1349" gradientTransform="matrix(0.9843 0.1767 -0.1767 0.9843 43.861 -94.7057)">
	<stop  offset="0" style="stop-color:#FFFFFF"/>
	<stop  offset="4.158497e-03" style="stop-color:#FAFAFA"/>
	<stop  offset="4.789299e-02" style="stop-color:#CBCBCB"/>
	<stop  offset="9.577912e-02" style="stop-color:#A0A0A0"/>
	<stop  offset="0.1481" style="stop-color:#7A7A7A"/>
	<stop  offset="0.2048" style="stop-color:#595959"/>
	<stop  offset="0.2671" style="stop-color:#3D3D3D"/>
	<stop  offset="0.3371" style="stop-color:#262626"/>
	<stop  offset="0.4179" style="stop-color:#151515"/>
	<stop  offset="0.5168" style="stop-color:#090909"/>
	<stop  offset="0.6526" style="stop-color:#020202"/>
	<stop  offset="1" style="stop-color:#000000"/>
</linearGradient>
<path class="st3" d="M235.7,345.2"/>
<linearGradient id="SVGID_5_" gradientUnits="userSpaceOnUse" x1="151.2798" y1="95.5135" x2="151.2798" y2="95.5135" gradientTransform="matrix(0.9843 0.1767 -0.1767 0.9843 43.861 -94.7057)">
	<stop  offset="0" style="stop-color:#FFFFFF"/>
	<stop  offset="4.158497e-03" style="stop-color:#FAFAFA"/>
	<stop  offset="4.789299e-02" style="stop-color:#CBCBCB"/>
	<stop  offset="9.577912e-02" style="stop-color:#A0A0A0"/>
	<stop  offset="0.1481" style="stop-color:#7A7A7A"/>
	<stop  offset="0.2048" style="stop-color:#595959"/>
	<stop  offset="0.2671" style="stop-color:#3D3D3D"/>
	<stop  offset="0.3371" style="stop-color:#262626"/>
	<stop  offset="0.4179" style="stop-color:#151515"/>
	<stop  offset="0.5168" style="stop-color:#090909"/>
	<stop  offset="0.6526" style="stop-color:#020202"/>
	<stop  offset="1" style="stop-color:#000000"/>
</linearGradient>
<path class="st4" d="M175.9,26"/>
<g>
	<g>
		
			<linearGradient id="SVGID_6_" gradientUnits="userSpaceOnUse" x1="-74.2215" y1="9.8469" x2="231.5063" y2="9.8469" gradientTransform="matrix(-1.0311 -0.4096 0.4131 -1.04 502.3549 351.7704)">
			<stop  offset="0" style="stop-color:#FFFFFF"/>
			<stop  offset="1" style="stop-color:#000000"/>
		</linearGradient>
		<path class="st5" d="M237.1,323.7c55.2,20.6,132.9,26.5,190.5,23.5c59.1-3.1,117.6-17,166.1-61.4l7.5,40
			C601.3,325.8,443,423.3,237.1,323.7"/>
	</g>
	<g>
		
			<linearGradient id="SVGID_7_" gradientUnits="userSpaceOnUse" x1="165.2978" y1="109.0363" x2="491.0399" y2="109.0363" gradientTransform="matrix(-0.8051 -0.2037 0.199 -0.7868 689.6799 407.5526)">
			<stop  offset="0" style="stop-color:#FFFFFF"/>
			<stop  offset="1" style="stop-color:#000000"/>
		</linearGradient>
		<path class="st6" d="M296.5,299.1c48.7,12.5,103.8,12.2,153.6-2.2c49.8-14.5,93.5-48.5,130.6-92.7l7.7,43.9
			C588.4,248.1,464,363.6,296.5,299.1"/>
	</g>
	<g>
		
			<linearGradient id="SVGID_8_" gradientUnits="userSpaceOnUse" x1="341.256" y1="107.7586" x2="676.4268" y2="107.7586" gradientTransform="matrix(-0.6488 4.740082e-02 -4.864587e-02 -0.6659 801.0079 235.8302)">
			<stop  offset="0" style="stop-color:#FFFFFF"/>
			<stop  offset="1" style="stop-color:#000000"/>
		</linearGradient>
		<path class="st7" d="M361.8,262.7c33.6-3.1,94.2-25.4,129.7-57.9c34.5-31.5,57.8-59.5,74.8-93.2l7,52.4
			C573.2,164.1,472.5,272.8,361.8,262.7"/>
	</g>
</g>
</svg>
